<mxfile host="app.diagrams.net" agent="Mozilla/5.0 (Windows NT 10.0; Win64; x64) AppleWebKit/537.36 (KHTML, like Gecko) Chrome/130.0.0.0 Safari/537.36" version="24.8.4">
  <diagram name="Page-1" id="CxmCRvLgPxV0YkFzYpAJ">
    <mxGraphModel dx="1154" dy="509" grid="1" gridSize="10" guides="1" tooltips="1" connect="1" arrows="1" fold="1" page="1" pageScale="1" pageWidth="850" pageHeight="1100" math="0" shadow="0">
      <root>
        <mxCell id="0" />
        <mxCell id="1" parent="0" />
        <mxCell id="U-eO4l271zNmarZVkvX4-2" value="" style="whiteSpace=wrap;html=1;aspect=fixed;" vertex="1" parent="1">
          <mxGeometry x="250" y="130" width="280" height="280" as="geometry" />
        </mxCell>
        <mxCell id="U-eO4l271zNmarZVkvX4-3" value="Traffic Accident Map" style="text;html=1;align=center;verticalAlign=middle;resizable=0;points=[];autosize=1;strokeColor=none;fillColor=none;" vertex="1" parent="1">
          <mxGeometry x="325" y="108" width="130" height="30" as="geometry" />
        </mxCell>
        <mxCell id="U-eO4l271zNmarZVkvX4-8" style="edgeStyle=orthogonalEdgeStyle;rounded=0;orthogonalLoop=1;jettySize=auto;html=1;" edge="1" parent="1" source="U-eO4l271zNmarZVkvX4-4" target="U-eO4l271zNmarZVkvX4-5">
          <mxGeometry relative="1" as="geometry">
            <Array as="points">
              <mxPoint x="175" y="170" />
            </Array>
          </mxGeometry>
        </mxCell>
        <mxCell id="U-eO4l271zNmarZVkvX4-11" style="edgeStyle=orthogonalEdgeStyle;rounded=0;orthogonalLoop=1;jettySize=auto;html=1;entryX=0;entryY=0.5;entryDx=0;entryDy=0;" edge="1" parent="1" source="U-eO4l271zNmarZVkvX4-4" target="U-eO4l271zNmarZVkvX4-6">
          <mxGeometry relative="1" as="geometry">
            <Array as="points">
              <mxPoint x="220" y="265" />
              <mxPoint x="220" y="265" />
            </Array>
          </mxGeometry>
        </mxCell>
        <mxCell id="U-eO4l271zNmarZVkvX4-4" value="User" style="shape=umlActor;verticalLabelPosition=bottom;verticalAlign=top;html=1;outlineConnect=0;" vertex="1" parent="1">
          <mxGeometry x="160" y="240" width="30" height="60" as="geometry" />
        </mxCell>
        <mxCell id="U-eO4l271zNmarZVkvX4-5" value="View Accident Hotspots" style="ellipse;whiteSpace=wrap;html=1;" vertex="1" parent="1">
          <mxGeometry x="348" y="144" width="80" height="50" as="geometry" />
        </mxCell>
        <mxCell id="U-eO4l271zNmarZVkvX4-6" value="View Detailed Crash Report" style="ellipse;whiteSpace=wrap;html=1;" vertex="1" parent="1">
          <mxGeometry x="350" y="240" width="80" height="50" as="geometry" />
        </mxCell>
        <mxCell id="U-eO4l271zNmarZVkvX4-7" value="Sort Crashes by Severity" style="ellipse;whiteSpace=wrap;html=1;" vertex="1" parent="1">
          <mxGeometry x="350" y="320" width="80" height="50" as="geometry" />
        </mxCell>
        <mxCell id="U-eO4l271zNmarZVkvX4-12" style="edgeStyle=orthogonalEdgeStyle;rounded=0;orthogonalLoop=1;jettySize=auto;html=1;entryX=0.002;entryY=0.592;entryDx=0;entryDy=0;entryPerimeter=0;" edge="1" parent="1" source="U-eO4l271zNmarZVkvX4-4" target="U-eO4l271zNmarZVkvX4-7">
          <mxGeometry relative="1" as="geometry">
            <Array as="points">
              <mxPoint x="175" y="350" />
              <mxPoint x="230" y="350" />
            </Array>
          </mxGeometry>
        </mxCell>
      </root>
    </mxGraphModel>
  </diagram>
</mxfile>
